<?xml version="1.0" encoding="UTF-8" standalone="no"?>
<!DOCTYPE svg PUBLIC "-//W3C//DTD SVG 1.1//EN" "http://www.w3.org/Graphics/SVG/1.1/DTD/svg11.dtd">
<svg width="100%" height="100%" viewBox="0 0 500 163" version="1.1" xmlns="http://www.w3.org/2000/svg" xmlns:xlink="http://www.w3.org/1999/xlink" xml:space="preserve" xmlns:serif="http://www.serif.com/" style="fill-rule:evenodd;clip-rule:evenodd;stroke-linejoin:round;stroke-miterlimit:2;">
    <g id="layer1" transform="matrix(1,0,0,1,-333.70157,-536.42431)">
        <g transform="matrix(2.253129,0,0,2.253129,424.438843,519.161583)">
            <rect x="48.4" y="15.1" width="34.7" height="56.6" style="fill:rgb(255,95,0);"/>
        </g>
        <g transform="matrix(2.253129,0,0,2.253129,424.438843,519.161583)">
            <path d="M51.9,43.5C51.9,32.5 57,22 65.7,15.2C50.1,2.9 27.4,5.6 15.1,21.2C2.8,36.8 5.5,59.5 21.2,71.7C34.3,82 52.6,82 65.7,71.8C57,64.9 51.9,54.5 51.9,43.5Z" style="fill:rgb(235,0,27);fill-rule:nonzero;"/>
        </g>
        <g transform="matrix(2.253129,0,0,2.253129,424.438843,519.161583)">
            <path d="M120.5,65.8L120.5,64.6L121,64.6L121,64.4L119.8,64.4L119.8,64.6L120.3,64.6L120.3,65.8L120.5,65.8ZM122.8,65.8L122.8,64.4L122.4,64.4L122,65.4L121.6,64.4L121.2,64.4L121.2,65.8L121.5,65.8L121.5,64.7L121.9,65.6L122.2,65.6L122.6,64.7L122.6,65.8L122.8,65.8Z" style="fill:rgb(247,158,27);fill-rule:nonzero;"/>
        </g>
        <g transform="matrix(2.253129,0,0,2.253129,424.438843,519.161583)">
            <path d="M123.9,43.5C123.9,63.4 107.8,79.5 87.9,79.5C79.8,79.5 72,76.8 65.7,71.8C81.3,59.5 84,36.8 71.8,21.2C70,18.9 68,16.9 65.7,15.1C81.3,2.8 104,5.5 116.3,21.2C121.2,27.5 123.9,35.4 123.9,43.5Z" style="fill:rgb(247,158,27);fill-rule:nonzero;"/>
        </g>
    </g>
</svg>
